<svg xmlns="http://www.w3.org/2000/svg" width="128" height="128" viewBox="0 0 128 128" role="img" aria-labelledby="title desc">
  <title id="title">8-bit hidden achievement</title>
  <desc id="desc">A small pixel art question block for hidden achievements.</desc>
  <rect width="128" height="128" fill="none"/>
  <g shape-rendering="crispEdges">
    <rect x="24" y="24" width="80" height="8" fill="#5b4b7a"/>
    <rect x="16" y="32" width="8" height="72" fill="#5b4b7a"/>
    <rect x="104" y="32" width="8" height="72" fill="#211a35"/>
    <rect x="24" y="104" width="80" height="8" fill="#211a35"/>
    <rect x="24" y="32" width="80" height="72" fill="#3b2f5c"/>
    <rect x="32" y="40" width="16" height="8" fill="#7d6aa8"/>
    <rect x="80" y="40" width="16" height="8" fill="#211a35"/>
    <rect x="32" y="80" width="16" height="8" fill="#211a35"/>
    <rect x="80" y="80" width="16" height="8" fill="#7d6aa8"/>
    <rect x="48" y="40" width="24" height="8" fill="#d8cff4"/>
    <rect x="72" y="48" width="8" height="8" fill="#d8cff4"/>
    <rect x="64" y="56" width="16" height="8" fill="#d8cff4"/>
    <rect x="56" y="64" width="16" height="8" fill="#d8cff4"/>
    <rect x="56" y="72" width="8" height="8" fill="#d8cff4"/>
    <rect x="56" y="88" width="8" height="8" fill="#d8cff4"/>
    <rect x="48" y="48" width="8" height="8" fill="#f2ecff"/>
    <rect x="72" y="56" width="8" height="8" fill="#a89acf"/>
    <rect x="56" y="88" width="8" height="8" fill="#f2ecff"/>
  </g>
</svg>
